<?xml version="1.0" encoding="utf-8"?>
<svg id="master-artboard" viewBox="0 0 150.6112823486328 41.74994659423828" version="1.1" xmlns="http://www.w3.org/2000/svg" x="0px" y="0px" style="enable-background:new 0 0 1400 980;" width="150.6112823486328px" height="41.74994659423828px"><rect id="ee-background" x="0" y="0" width="150.6112823486328" height="41.74994659423828" style="fill: white; fill-opacity: 0; pointer-events: none;"/><defs><style id="ee-google-fonts">@import url(https://fonts.googleapis.com/css?family=Fjalla+One:400);</style></defs>

































































































<g transform="matrix(0.11134232580661774, 0, 0, 0.11134232580661774, 6.891162395477295, -41.837327003479004)"><g transform="matrix(1.188792705535889, 0, 0, 1.188792705535889, -96.71715256039522, -100.63089663583698)"><path class="st0" d="M161.9,451.8c0,0-3,27.9-24.3,73.4c-21.2,45.5-52.1,92.8,4.9,134s140.1-3.6,166.7-41.8&#10;&#9;&#9;c26.7-38.2-6.7-81.2-41.8-98.2C232.2,502.1,183.1,474.8,161.9,451.8z" style="fill: rgb(222, 194, 155);" transform="matrix(1, 0, 0, 1, 1.8758328224066645e-12, 4.547473508864641e-13)"/><path class="st7" d="M151.6,429c0,0,10.6,43-35.4,99.6c-46,56.6-29.5,152,67.8,155.5c97.2,3.5,156.1-60.7,140.8-120.2&#10;&#9;&#9;c-15.3-59.5-130.8-65.4-161.4-140.8c0,0,32.4,43,114.9,70.7s123.1,157.3-34.2,198S77.4,651.1,73.2,612.2&#10;&#9;&#9;c-4.1-38.9,13-91.3,44.8-114.9C149.8,473.8,151.6,429,151.6,429z" style="fill: rgb(89, 70, 44);" transform="matrix(1, 0, 0, 1, 1.8758328224066645e-12, 4.547473508864641e-13)"/><path class="st7" d="M146.3,501.5c0,0-47.7,111.4,56.6,142c0,0-48.9,7.1-68.3-44.2C115.1,548,146.3,501.5,146.3,501.5z" style="fill: rgb(89, 70, 44);" transform="matrix(1, 0, 0, 1, 1.8758328224066645e-12, 4.547473508864641e-13)"/><path class="st7" d="M119.8,536.8c0,0-37.1,143.2,117.8,117.2c0,0-68.9,31.2-110.8-12.4C85,598.1,119.8,536.8,119.8,536.8z" style="fill: rgb(89, 70, 44);" transform="matrix(1, 0, 0, 1, 1.8758328224066645e-12, 4.547473508864641e-13)"/><path class="st7" d="M165.1,474.4c0,0-40.7,123.1,44.8,141.4c0,0-37.7,8.8-57.2-35.4S165.1,474.4,165.1,474.4z" style="fill: rgb(89, 70, 44);" transform="matrix(1, 0, 0, 1, 1.8758328224066645e-12, 4.547473508864641e-13)"/><path class="st7" d="M178.7,491.4c0,0,100.8,56.6,50.7,134.3C229.4,625.8,301.2,546.8,178.7,491.4z" style="fill: rgb(89, 70, 44);" transform="matrix(1, 0, 0, 1, 1.8758328224066645e-12, 4.547473508864641e-13)"/><path class="st7" d="M209.9,494.4c0,0,99,54.8,46,137.3C255.9,631.7,331.9,546.2,209.9,494.4z" style="fill: rgb(89, 70, 44);" transform="matrix(1, 0, 0, 1, 1.8758328224066645e-12, 4.547473508864641e-13)"/><path class="st7" d="M270.6,527.4c0,0,77.2,54.2,8.2,107.8C278.9,635.2,369.6,582.8,270.6,527.4z" style="fill: rgb(89, 70, 44);" transform="matrix(1, 0, 0, 1, 1.8758328224066645e-12, 4.547473508864641e-13)"/></g><path d="M 215.29483032226562 552.671875" style="fill-opacity: 1; stroke: rgb(0, 0, 0); stroke-opacity: 1; stroke-width: 10; paint-order: fill; fill: rgb(0, 0, 0);"/></g><path d="M 10.75 30.739694595336914 C 10.1899995803833 30.739694595336914 9.579999923706055 30.69302749633789 8.920000076293945 30.599695205688477 C 8.266666412353516 30.513029098510742 7.616666793823242 30.32636260986328 6.96999979019165 30.039695739746094 C 6.329999923706055 29.753028869628906 5.7133331298828125 29.34636116027832 5.119999885559082 28.81969451904297 C 4.519999980926514 28.293027877807617 3.993333339691162 27.599695205688477 3.5399999618530273 26.739694595336914 C 3.0799999237060547 25.879695892333984 2.7133333683013916 24.816362380981445 2.440000057220459 23.549694061279297 C 2.1666667461395264 22.28302764892578 2.0299999713897705 20.7763614654541 2.0299999713897705 19.029695510864258 L 2.0299999713897705 6.619695663452148 C 2.0299999713897705 4.853029251098633 2.1700000762939453 3.3463611602783203 2.450000047683716 2.0996952056884766 C 2.7300000190734863 0.8463611602783203 3.1033332347869873 -0.2069721221923828 3.569999933242798 -1.0603046417236328 C 4.0366668701171875 -1.9136390686035156 4.566666603088379 -2.593639373779297 5.159999847412109 -3.1003036499023438 C 5.753333568572998 -3.6069717407226562 6.37333345413208 -3.9936370849609375 7.019999980926514 -4.260303497314453 C 7.673333168029785 -4.526969909667969 8.319999694824219 -4.700305938720703 8.960000038146973 -4.780303955078125 C 9.606666564941406 -4.8603057861328125 10.203332901000977 -4.900306701660156 10.75 -4.900306701660156 C 11.270000457763672 -4.900306701660156 11.84666633605957 -4.863639831542969 12.479999542236328 -4.790306091308594 C 13.113333702087402 -4.716972351074219 13.75 -4.553638458251953 14.390000343322754 -4.300304412841797 C 15.023333549499512 -4.046970367431641 15.640000343322754 -3.6703033447265625 16.239999771118164 -3.1703033447265625 C 16.84000015258789 -2.6703033447265625 17.373332977294922 -1.9936370849609375 17.84000015258789 -1.1403045654296875 C 18.30666732788086 -0.2869720458984375 18.68000030517578 0.7730293273925781 18.959999084472656 2.0396957397460938 C 19.239999771118164 3.2996959686279297 19.3799991607666 4.826362609863281 19.3799991607666 6.619695663452148 L 19.3799991607666 19.029695510864258 C 19.3799991607666 20.76302719116211 19.236665725708008 22.256362915039062 18.950000762939453 23.509695053100586 C 18.663333892822266 24.763029098510742 18.286666870117188 25.823028564453125 17.81999969482422 26.689695358276367 C 17.35333251953125 27.55636215209961 16.816667556762695 28.253028869628906 16.209999084472656 28.779695510864258 C 15.603333473205566 29.30636215209961 14.983333587646484 29.71636199951172 14.350000381469727 30.009695053100586 C 13.710000038146973 30.303028106689453 13.076666831970215 30.496362686157227 12.449999809265137 30.58969497680664 C 11.816666603088379 30.689695358276367 11.25 30.739694595336914 10.75 30.739694595336914 M 10.75 26.739694595336914 C 11.270000457763672 26.739694595336914 11.723333358764648 26.649694442749023 12.109999656677246 26.469696044921875 C 12.49666690826416 26.296361923217773 12.816666603088379 25.989694595336914 13.069999694824219 25.549694061279297 C 13.323333740234375 25.109695434570312 13.516666412353516 24.53302764892578 13.649999618530273 23.81969451904297 C 13.776666641235352 23.099695205688477 13.84000015258789 22.19302749633789 13.84000015258789 21.099695205688477 L 13.84000015258789 5.159694671630859 C 13.84000015258789 4.039695739746094 13.776666641235352 3.103029251098633 13.649999618530273 2.3496952056884766 C 13.516666412353516 1.6030292510986328 13.323333740234375 0.99969482421875 13.069999694824219 0.5396957397460938 C 12.816666603088379 0.07969474792480469 12.49666690826416 -0.2436389923095703 12.109999656677246 -0.43030548095703125 C 11.723333358764648 -0.6236381530761719 11.270000457763672 -0.7203044891357422 10.75 -0.7203044891357422 C 10.216666221618652 -0.7203044891357422 9.75 -0.6236381530761719 9.350000381469727 -0.43030548095703125 C 8.956666946411133 -0.2436389923095703 8.630000114440918 0.07969474792480469 8.369999885559082 0.5396957397460938 C 8.109999656677246 0.99969482421875 7.913333415985107 1.6030292510986328 7.78000020980835 2.3496952056884766 C 7.6533331871032715 3.103029251098633 7.590000152587891 4.039695739746094 7.590000152587891 5.159694671630859 L 7.590000152587891 21.099695205688477 C 7.590000152587891 22.19302749633789 7.6533331871032715 23.099695205688477 7.78000020980835 23.81969451904297 C 7.913333415985107 24.53302764892578 8.109999656677246 25.109695434570312 8.369999885559082 25.549694061279297 C 8.630000114440918 25.989694595336914 8.956666946411133 26.296361923217773 9.350000381469727 26.469696044921875 C 9.75 26.649694442749023 10.216666221618652 26.739694595336914 10.75 26.739694595336914 ZM 24.396747589111328 -4.600303649902344 L 37.79674530029297 -4.600303649902344 L 37.79674530029297 -0.4103050231933594 L 29.716747283935547 -0.4103050231933594 L 29.716747283935547 10.069694519042969 L 36.046749114990234 10.069694519042969 L 36.046749114990234 14.24969482421875 L 29.716747283935547 14.24969482421875 L 29.716747283935547 30.42969512939453 L 24.396747589111328 30.42969512939453 L 24.396747589111328 -4.600303649902344 ZM 41.3335075378418 -4.600303649902344 L 54.73350524902344 -4.600303649902344 L 54.73350524902344 -0.4103050231933594 L 46.653507232666016 -0.4103050231933594 L 46.653507232666016 10.069694519042969 L 52.98350524902344 10.069694519042969 L 52.98350524902344 14.24969482421875 L 46.653507232666016 14.24969482421875 L 46.653507232666016 30.42969512939453 L 41.3335075378418 30.42969512939453 L 41.3335075378418 -4.600303649902344 ZM 58.270263671875 -4.600303649902344 L 63.59026336669922 -4.600303649902344 L 63.59026336669922 30.42969512939453 L 58.270263671875 30.42969512939453 L 58.270263671875 -4.600303649902344 ZM 77.11827087402344 30.739694595336914 C 76.57160186767578 30.739694595336914 75.98160552978516 30.69302749633789 75.3482666015625 30.599695205688477 C 74.70826721191406 30.513029098510742 74.07160186767578 30.32636260986328 73.43827056884766 30.039695739746094 C 72.80493927001953 29.753028869628906 72.19493865966797 29.34636116027832 71.60826873779297 28.81969451904297 C 71.02826690673828 28.293027877807617 70.51827239990234 27.599695205688477 70.0782699584961 26.739694595336914 C 69.63160705566406 25.879695892333984 69.27493286132812 24.816362380981445 69.00827026367188 23.549694061279297 C 68.7416000366211 22.28302764892578 68.60826873779297 20.7763614654541 68.60826873779297 19.029695510864258 L 68.60826873779297 6.619695663452148 C 68.60826873779297 4.853029251098633 68.74493408203125 3.3463611602783203 69.01827239990234 2.0996952056884766 C 69.2916030883789 0.8463611602783203 69.65493774414062 -0.2069721221923828 70.10826873779297 -1.0603046417236328 C 70.55493927001953 -1.9136390686035156 71.07493591308594 -2.593639373779297 71.66827392578125 -3.1003036499023438 C 72.25493621826172 -3.6069717407226562 72.86160278320312 -3.9936370849609375 73.48826599121094 -4.260303497314453 C 74.11493682861328 -4.526969909667969 74.7416000366211 -4.700305938720703 75.36827087402344 -4.780303955078125 C 75.98826599121094 -4.8603057861328125 76.56493377685547 -4.900306701660156 77.0982666015625 -4.900306701660156 C 78.4916000366211 -4.900306701660156 79.65827178955078 -4.70697021484375 80.5982666015625 -4.320304870605469 C 81.53160095214844 -3.9336395263671875 82.28160095214844 -3.4003067016601562 82.8482666015625 -2.720306396484375 C 83.41493225097656 -2.0469703674316406 83.81826782226562 -1.2569713592529297 84.05827331542969 -0.35030555725097656 C 84.29827117919922 0.5496959686279297 84.41827392578125 1.5063610076904297 84.41827392578125 2.519695281982422 C 84.41827392578125 3.273029327392578 84.38160705566406 3.9663619995117188 84.30827331542969 4.599695205688477 C 84.23493957519531 5.233028411865234 84.1216049194336 5.9330291748046875 83.96826934814453 6.699695587158203 L 79.65827178955078 6.699695587158203 L 79.65827178955078 4.919694900512695 C 79.65827178955078 2.9930286407470703 79.44827270507812 1.5496959686279297 79.02826690673828 0.5896949768066406 C 78.60160064697266 -0.36363792419433594 77.978271484375 -0.8403053283691406 77.15827178955078 -0.8403053283691406 C 76.6649398803711 -0.8403053283691406 76.23493957519531 -0.7469711303710938 75.86827087402344 -0.5603046417236328 C 75.50160217285156 -0.3669719696044922 75.19493865966797 -0.04030418395996094 74.94827270507812 0.4196949005126953 C 74.70159912109375 0.8730278015136719 74.51160430908203 1.4763622283935547 74.3782730102539 2.229694366455078 C 74.25160217285156 2.9830284118652344 74.18827056884766 3.9196949005126953 74.18827056884766 5.039695739746094 L 74.18827056884766 21.039695739746094 C 74.18827056884766 22.133028030395508 74.23826599121094 23.039695739746094 74.33827209472656 23.759695053100586 C 74.44493865966797 24.48636245727539 74.61160278320312 25.06969451904297 74.83827209472656 25.509695053100586 C 75.07160186767578 25.94302749633789 75.3782730102539 26.253028869628906 75.75827026367188 26.439695358276367 C 76.13160705566406 26.626361846923828 76.5849380493164 26.719696044921875 77.11827087402344 26.719696044921875 C 77.45826721191406 26.719696044921875 77.78826904296875 26.639694213867188 78.10826873779297 26.479694366455078 C 78.42160034179688 26.32636260986328 78.69827270507812 26.079694747924805 78.93827056884766 25.739694595336914 C 79.17160034179688 25.406360626220703 79.36160278320312 24.983028411865234 79.50827026367188 24.469696044921875 C 79.65493774414062 23.956361770629883 79.728271484375 23.35302734375 79.728271484375 22.65969467163086 L 79.728271484375 19.229694366455078 L 84.58827209472656 19.229694366455078 L 84.58827209472656 22.469696044921875 C 84.58827209472656 25.289695739746094 83.94493865966797 27.36969566345215 82.65827178955078 28.70969581604004 C 81.3716049194336 30.04969596862793 79.52493286132812 30.726362228393555 77.11827087402344 30.739694595336914 ZM 88.7605209350586 -4.600303649902344 L 94.08052062988281 -4.600303649902344 L 94.08052062988281 30.42969512939453 L 88.7605209350586 30.42969512939453 L 88.7605209350586 -4.600303649902344 ZM 99.93852996826172 -4.600303649902344 L 105.28852844238281 -4.600303649902344 L 105.28852844238281 21.079694747924805 C 105.28852844238281 22.17302703857422 105.3451919555664 23.08302879333496 105.45852661132812 23.809696197509766 C 105.56519317626953 24.529695510864258 105.738525390625 25.106361389160156 105.97853088378906 25.539695739746094 C 106.2185287475586 25.96636199951172 106.52519226074219 26.273029327392578 106.89852905273438 26.45969581604004 C 107.27852630615234 26.6463623046875 107.72853088378906 26.739694595336914 108.24852752685547 26.739694595336914 C 108.76852416992188 26.739694595336914 109.22186279296875 26.6463623046875 109.60852813720703 26.45969581604004 C 110.00186157226562 26.273029327392578 110.32186126708984 25.96636199951172 110.56852722167969 25.539695739746094 C 110.82186126708984 25.106361389160156 111.01519775390625 24.529695510864258 111.14852905273438 23.809696197509766 C 111.27519226074219 23.08302879333496 111.33853149414062 22.17302703857422 111.33853149414062 21.079694747924805 L 111.33853149414062 -4.600303649902344 L 116.62852478027344 -4.600303649902344 L 116.62852478027344 19.65969467163086 C 116.62852478027344 21.373027801513672 116.49185943603516 22.836360931396484 116.2185287475586 24.049694061279297 C 115.9451904296875 25.269695281982422 115.58518981933594 26.289695739746094 115.1385269165039 27.109695434570312 C 114.68519592285156 27.92969512939453 114.16852569580078 28.579694747924805 113.58853149414062 29.059694290161133 C 113.00852966308594 29.53302764892578 112.40519714355469 29.8963623046875 111.77852630615234 30.149694442749023 C 111.15852355957031 30.40302848815918 110.54186248779297 30.566362380981445 109.92852783203125 30.639694213867188 C 109.31519317626953 30.706361770629883 108.75519561767578 30.739694595336914 108.24852752685547 30.739694595336914 C 107.74185943603516 30.739694595336914 107.18519592285156 30.706361770629883 106.57852935791016 30.639694213867188 C 105.96519470214844 30.566362380981445 105.35186004638672 30.40302848815918 104.738525390625 30.149694442749023 C 104.12519073486328 29.8963623046875 103.5318603515625 29.53302764892578 102.95852661132812 29.059694290161133 C 102.37852478027344 28.579694747924805 101.86519622802734 27.92969512939453 101.41852569580078 27.109695434570312 C 100.96519470214844 26.289695739746094 100.60519409179688 25.273029327392578 100.3385238647461 24.059696197509766 C 100.07186126708984 22.85302734375 99.93852996826172 21.386362075805664 99.93852996826172 19.65969467163086 L 99.93852996826172 -4.600303649902344 ZM 122.4905014038086 -4.600303649902344 L 129.43051147460938 -4.600303649902344 L 132.79049682617188 8.959695816040039 C 133.14382934570312 10.459695816040039 133.42384338378906 11.889694213867188 133.63050842285156 13.24969482421875 C 133.83717346191406 14.616361618041992 134.03384399414062 15.89969539642334 134.2205047607422 17.099695205688477 L 134.3905029296875 17.099695205688477 C 134.58383178710938 15.89969539642334 134.78050231933594 14.616361618041992 134.98049926757812 13.24969482421875 C 135.18716430664062 11.889694213867188 135.4671630859375 10.459695816040039 135.82049560546875 8.959695816040039 L 139.29049682617188 -4.600303649902344 L 146.08050537109375 -4.600303649902344 L 146.08050537109375 30.42969512939453 L 141.12049865722656 30.42969512939453 L 141.12049865722656 18.83969497680664 C 141.12049865722656 17.066360473632812 141.13717651367188 15.359695434570312 141.17050170898438 13.719696044921875 C 141.20384216308594 12.079694747924805 141.24716186523438 10.569694519042969 141.30050659179688 9.189695358276367 C 141.3538360595703 7.816362380981445 141.41383361816406 6.603029251098633 141.48049926757812 5.54969596862793 C 141.5538330078125 4.496362686157227 141.61717224121094 3.6630287170410156 141.67050170898438 3.0496959686279297 L 141.28050231933594 3.0496959686279297 L 135.99050903320312 25.919694900512695 L 132.63050842285156 25.919694900512695 L 127.2905044555664 3.0496959686279297 L 126.90050506591797 3.0496959686279297 C 126.96050262451172 3.6630287170410156 127.02383422851562 4.496362686157227 127.09049987792969 5.54969596862793 C 127.15717315673828 6.603029251098633 127.21717071533203 7.816362380981445 127.27050018310547 9.189695358276367 C 127.32383728027344 10.569694519042969 127.3705062866211 12.079694747924805 127.41050720214844 13.719696044921875 C 127.44384002685547 15.359695434570312 127.46050262451172 17.066360473632812 127.46050262451172 18.83969497680664 L 127.46050262451172 30.42969512939453 L 122.4905014038086 30.42969512939453 L 122.4905014038086 -4.600303649902344 Z" transform="matrix(0.6775619387626648, 0, 0, 0.8466423153877258, 49.571739196777344, 11.387086868286133)" style="fill: rgb(255, 255, 255); white-space: pre; color: rgb(255, 255, 255);"/></svg>